<svg xmlns="http://www.w3.org/2000/svg" version="1.1" xmlns:xlink="http://www.w3.org/1999/xlink" xmlns:svgjs="http://svgjs.dev/svgjs" width="1440" height="250" preserveAspectRatio="none" viewBox="0 0 1440 250"><g mask="url(&quot;#SvgjsMask1036&quot;)" fill="none"><path d="M44 250L294 0L448.5 0L198.5 250z" fill="url(&quot;#SvgjsLinearGradient1037&quot;)"></path><path d="M281.6 250L531.6 0L636.6 0L386.6 250z" fill="url(&quot;#SvgjsLinearGradient1037&quot;)"></path><path d="M476.20000000000005 250L726.2 0L774.2 0L524.2 250z" fill="url(&quot;#SvgjsLinearGradient1037&quot;)"></path><path d="M725.8000000000001 250L975.8000000000001 0L1209.8000000000002 0L959.8000000000001 250z" fill="url(&quot;#SvgjsLinearGradient1037&quot;)"></path><path d="M1426 250L1176 0L936 0L1186 250z" fill="url(&quot;#SvgjsLinearGradient1038&quot;)"></path><path d="M1175.4 250L925.4000000000001 0L637.4000000000001 0L887.4000000000001 250z" fill="url(&quot;#SvgjsLinearGradient1038&quot;)"></path><path d="M927.8 250L677.8 0L358.29999999999995 0L608.3 250z" fill="url(&quot;#SvgjsLinearGradient1038&quot;)"></path><path d="M714.1999999999999 250L464.19999999999993 0L219.69999999999993 0L469.69999999999993 250z" fill="url(&quot;#SvgjsLinearGradient1038&quot;)"></path><path d="M1227.269513071351 250L1440 37.26951307135107L1440 250z" fill="url(&quot;#SvgjsLinearGradient1037&quot;)"></path><path d="M0 250L212.73048692864893 250L 0 37.26951307135107z" fill="url(&quot;#SvgjsLinearGradient1038&quot;)"></path></g><defs><mask id="SvgjsMask1036"><rect width="1440" height="250" fill="#ffffff"></rect></mask><linearGradient x1="0%" y1="100%" x2="100%" y2="0%" id="SvgjsLinearGradient1037"><stop stop-color="rgba(134, 136, 141, 0.2)" offset="0"></stop><stop stop-opacity="0" stop-color="rgba(134, 136, 141, 0.2)" offset="0.66"></stop></linearGradient><linearGradient x1="100%" y1="100%" x2="0%" y2="0%" id="SvgjsLinearGradient1038"><stop stop-color="rgba(134, 136, 141, 0.2)" offset="0"></stop><stop stop-opacity="0" stop-color="rgba(134, 136, 141, 0.2)" offset="0.66"></stop></linearGradient></defs></svg>