<svg xmlns="http://www.w3.org/2000/svg" version="1.1" xmlns:xlink="http://www.w3.org/1999/xlink" xmlns:svgjs="http://svgjs.dev/svgjs" width="1440" height="560" preserveAspectRatio="none" viewBox="0 0 1440 560"><g mask="url(&quot;#SvgjsMask1012&quot;)" fill="none"><path d="M0 0L397.21 0L0 69.43z" fill="rgba(255, 255, 255, .1)"></path><path d="M0 69.43L397.21 0L523.14 0L0 196.78z" fill="rgba(255, 255, 255, .075)"></path><path d="M0 196.78L523.14 0L934.98 0L0 246.59z" fill="rgba(255, 255, 255, .05)"></path><path d="M0 246.59L934.98 0L1172.0900000000001 0L0 413.75z" fill="rgba(255, 255, 255, .025)"></path><path d="M1440 560L1353.64 560L1440 320.15999999999997z" fill="rgba(0, 0, 0, .1)"></path><path d="M1440 320.15999999999997L1353.64 560L632.0400000000001 560L1440 175.02999999999997z" fill="rgba(0, 0, 0, .075)"></path><path d="M1440 175.02999999999997L632.04 560L375.27 560L1440 113.24999999999997z" fill="rgba(0, 0, 0, .05)"></path><path d="M1440 113.25L375.27 560L266.54999999999995 560L1440 98.12z" fill="rgba(0, 0, 0, .025)"></path></g><defs><mask id="SvgjsMask1012"><rect width="1440" height="560" fill="#ffffff"></rect></mask></defs></svg>